<svg width="1200" height="800" viewBox="0 0 1200 800" xmlns="http://www.w3.org/2000/svg">
  <defs>
    <linearGradient id="bg" x1="0" y1="0" x2="1" y2="1">
      <stop offset="0" stop-color="#2a1a12"/>
      <stop offset="1" stop-color="#6f4a2e"/>
    </linearGradient>
    <linearGradient id="card" x1="0" y1="0" x2="0" y2="1">
      <stop offset="0" stop-color="#f3d4b8"/>
      <stop offset="1" stop-color="#ddb08c"/>
    </linearGradient>
  </defs>

  <rect width="1200" height="800" fill="url(#bg)"/>
  <circle cx="120" cy="120" r="90" fill="#ffc89a" opacity="0.17"/>
  <circle cx="1080" cy="130" r="120" fill="#ffd8b6" opacity="0.16"/>

  <rect x="90" y="170" width="1020" height="470" rx="30" fill="#ffffff" opacity="0.10"/>

  <rect x="130" y="220" width="220" height="170" rx="18" fill="url(#card)"/>
  <ellipse cx="240" cy="360" rx="54" ry="16" fill="#b96e3e"/>
  <rect x="185" y="290" width="110" height="68" rx="36" fill="#a55f34"/>
  <ellipse cx="240" cy="288" rx="46" ry="14" fill="#d69a6d"/>

  <rect x="380" y="220" width="220" height="170" rx="18" fill="url(#card)"/>
  <rect x="420" y="265" width="140" height="90" rx="10" fill="#9e5f36"/>
  <path d="M430 280 H550 M430 305 H550 M430 330 H550" stroke="#e2c09f" stroke-width="8" opacity="0.8"/>

  <rect x="630" y="220" width="220" height="170" rx="18" fill="url(#card)"/>
  <rect x="680" y="255" width="120" height="100" rx="18" fill="#bd7a4e"/>
  <circle cx="715" cy="290" r="11" fill="#f2d2b5"/>
  <circle cx="765" cy="290" r="11" fill="#f2d2b5"/>
  <circle cx="715" cy="325" r="11" fill="#f2d2b5"/>
  <circle cx="765" cy="325" r="11" fill="#f2d2b5"/>

  <rect x="880" y="220" width="190" height="170" rx="18" fill="url(#card)"/>
  <ellipse cx="975" cy="355" rx="46" ry="14" fill="#b06a3f"/>
  <path d="M930 350 C938 318, 950 295, 975 295 C1000 295, 1012 318, 1020 350 Z" fill="#9c5932"/>
  <ellipse cx="975" cy="295" rx="26" ry="8" fill="#d9a57f"/>

  <rect x="130" y="430" width="300" height="170" rx="18" fill="url(#card)"/>
  <rect x="180" y="470" width="200" height="90" rx="16" fill="#8f5330"/>
  <path d="M190 490 C240 450, 320 450, 370 490" stroke="#e8c9ab" stroke-width="7" fill="none"/>
  <path d="M190 525 C240 485, 320 485, 370 525" stroke="#e8c9ab" stroke-width="7" fill="none"/>

  <rect x="460" y="430" width="300" height="170" rx="18" fill="url(#card)"/>
  <rect x="500" y="465" width="220" height="105" rx="12" fill="#a6633a"/>
  <rect x="520" y="485" width="180" height="22" rx="8" fill="#e3c6aa"/>
  <rect x="520" y="520" width="180" height="22" rx="8" fill="#e3c6aa"/>

  <rect x="790" y="430" width="280" height="170" rx="18" fill="url(#card)"/>
  <circle cx="860" cy="515" r="40" fill="#b8764c"/>
  <circle cx="940" cy="515" r="40" fill="#a9653c"/>
  <circle cx="1020" cy="515" r="40" fill="#c58659"/>
  <circle cx="860" cy="515" r="20" fill="#e4c4a7"/>
  <circle cx="940" cy="515" r="20" fill="#e4c4a7"/>
  <circle cx="1020" cy="515" r="20" fill="#e4c4a7"/>

  <text x="100" y="705" fill="#ffe9d5" font-size="62" font-family="Arial, sans-serif" font-weight="700">Craftify Handmade Products</text>
  <text x="100" y="755" fill="#f6d8bf" font-size="28" font-family="Arial, sans-serif">Pottery, woven decor, wooden crafts, artisan textiles, and handmade collections</text>
</svg>
